<?xml version="1.0" encoding="UTF-8"?>
<svg id="Layer_1" xmlns="http://www.w3.org/2000/svg" version="1.1" viewBox="0 0 210 210">
  <defs>
    <style>
      .st0 {
        fill: #fff;
      }

      .st1 {
        fill: #d2dc50;
      }

      @keyframes rotate {
        from {
          transform: rotate(0deg);
        }
        to {
          transform: rotate(360deg);
        }
      }

      #notify-object {
        transform-origin: center;
        animation: rotate 8s linear infinite;
      }
    </style>
  </defs>
  <g id="notify-object" shape-rendering="geometricPrecision" text-rendering="geometricPrecision">
    <path class="st0" d="M210,105c0,58-47,105-105,105S0,163,0,105,47,0,105,0s105,47,105,105Z"/>
    <path class="st1" d="M134,80.2l-7.2,47.1c-.2,1.1-.8,2-1.8,2.6-1.1.5-2.1.6-3.2.1l-13.6-5.5-7.7,8.4c-1.2,1.1-2.6,1.4-4.1.9-1.4-.7-2.2-1.8-2.3-3.4v-9.5c0-.5.2-.8.5-1.1l19-20.7c.6-.8.6-1.7-.1-2.5-.8-.7-1.6-.7-2.5-.1l-23,20.5-10-5c-1.3-.7-2-1.7-2-3.2,0-1.4.6-2.5,1.8-3.3l50.7-29c1.4-.7,2.6-.6,3.8.2,1.3.8,1.8,2,1.7,3.5h0Z"/>
    <path id="rotation-group" d="M108.09,33.98c.71.53,1.78,1.02,2.94,1.12,1.72.16,2.81-.66,2.93-1.97.11-1.21-.52-1.97-2.22-2.81-2.06-.94-3.27-2.17-3.1-4.01.19-2.02,2.01-3.38,4.54-3.15,1.33.12,2.27.52,2.82.9l-.59,1.33c-.4-.27-1.24-.73-2.41-.84-1.78-.16-2.55.84-2.63,1.73-.11,1.21.62,1.89,2.36,2.75,2.13,1.05,3.15,2.22,2.98,4.12-.19,2.01-1.83,3.61-4.9,3.33-1.26-.12-2.6-.61-3.25-1.13l.56-1.37h0ZM122.27,24.78l-2.59,12.82-1.65-.34,2.58-12.82,1.65.34h0ZM120.89,22.57c.1-.5.61-.87,1.15-.76.51.1.82.64.72,1.14s-.6.89-1.11.78c-.55-.11-.85-.67-.76-1.16ZM122.44,37.07l10.2-7.83.02-.06-6.31-2.07.44-1.35,8.39,2.75-.32.98-10.15,7.8-.02.06,6.95,2.28-.44,1.35-9.08-2.97.3-.94h0ZM142.17,39.57l-4.54-2.29-2.13,4.21,5.06,2.56-.64,1.27-6.56-3.32,5.89-11.67,6.31,3.18-.64,1.27-4.8-2.42-1.86,3.69,4.54,2.29-.63,1.25h0ZM155.63,40.21l-4.97,5.94c-1.88,2.24-1.68,4.03-.34,5.15,1.48,1.25,3.26,1.06,5.11-1.16l4.97-5.94,1.31,1.1-4.89,5.85c-2.57,3.08-5.26,2.99-7.43,1.17-2.05-1.72-2.61-4.18-.02-7.3l4.94-5.9,1.31,1.1h0ZM165.38,49.1l1.11,1.27-8.81,7.65,3.67,4.22-1.07.93-4.77-5.49,9.87-8.58h0ZM166.21,64.51l-4.21,1.04-.93-1.48,13.45-3.2,1.09,1.73-8.71,10.74-.96-1.53,2.74-3.37-2.46-3.93h0ZM169.61,67.43l2.51-3.09c.57-.7,1.12-1.27,1.66-1.85l-.02-.03c-.76.24-1.54.49-2.35.7l-3.89.93,2.09,3.34ZM180.59,76.73c.05-.48.06-1.44-.4-2.53-.7-1.64-1.95-1.85-2.77-1.5-1.12.48-1.37,1.44-1.3,3.38.08,2.37-.46,3.82-2.23,4.57-1.6.68-3.45.27-4.71-1.69l-1.01-.14c.16.73-.08,1.51-.81,1.82-1.04.44-1.83-.3-2.22-1.21-.19-.46-.29-1.02-.24-1.42l.92-.08c-.03.33.03.71.19,1.08.18.41.48.68.85.52.48-.2.44-.84.18-1.72l1.63.15s-.03-.05-.03-.07c-.49-1.16-.69-2.57-.54-3.4l1.47-.16c-.13.88-.06,2.05.4,3.12.67,1.59,1.91,2.16,3.12,1.64,1.12-.48,1.49-1.39,1.43-3.28-.14-2.26.36-3.91,2.06-4.63,1.87-.8,3.93.16,4.92,2.51.52,1.23.62,2.24.54,2.91l-1.45.11h.03ZM175.97,85.56l-4.32-.33-.42-1.7,13.76,1.17.49,1.97-11.62,7.47-.43-1.75,3.65-2.35-1.11-4.5h0ZM178.27,89.41l3.35-2.14c.76-.49,1.47-.86,2.15-1.23v-.03c-.81,0-1.64-.02-2.46-.07l-3.98-.34.94,3.82h0ZM187.07,95.23l.14,1.68-11.62,1.02.49,5.57-1.41.13-.63-7.25,13.03-1.15h0ZM187.62,107.81l-13.07-.21.03-1.69,13.07.21-.03,1.69ZM178.51,122.73c1.81.2,4,.45,5.6.73v-.06c-1.43-.69-2.94-1.49-4.62-2.45l-5.88-3.32.21-1.27,6.5-1.06c1.92-.31,3.67-.55,5.26-.66v-.03c-1.59-.3-3.75-.76-5.65-1.2l-5.47-1.27.26-1.59,12.75,3.05-.35,2.13-6.6,1.16c-1.68.27-3.16.47-4.56.57v.06c1.24.54,2.58,1.24,4.11,2.08l5.85,3.34-.35,2.13-13.03-1.35.27-1.63s5.72.62,5.72.62ZM179.58,140.32l-1.49-2.65-.03-.02-.8,2.84-1.21-.52,1.48-2.56-.03-.02-2.88.78-.16-1.4h2.95l.02-.03-2.02-2.24,1.08-.74,1.44,2.63.03.02.8-2.78,1.21.52-1.47,2.47.03.02,2.89-.73.15,1.36-2.95.03-.02.03,2.02,2.16-1.06.81h0ZM165.91,143.47c-.81.35-1.76,1.05-2.43,2-.99,1.42-.81,2.77.28,3.52,1,.7,1.97.52,3.54-.54,1.84-1.32,3.5-1.77,5.01-.73,1.67,1.16,1.96,3.41.51,5.5-.76,1.1-1.57,1.72-2.18,2.01l-.87-1.16c.44-.22,1.25-.72,1.92-1.69,1.02-1.47.53-2.63-.2-3.14-1-.7-1.95-.39-3.55.7-1.97,1.33-3.48,1.64-5.06.55-1.65-1.15-2.24-3.37-.48-5.9.72-1.04,1.81-1.96,2.59-2.27l.92,1.16h0ZM166.91,160.38l-9.88-8.57,1.11-1.27,9.88,8.57-1.11,1.27ZM169.51,160.27c.38.33.46.96.1,1.37-.35.4-.96.4-1.34.07s-.48-.95-.13-1.35c.37-.42,1-.41,1.38-.08h0ZM156.14,154.46l1.81,12.72.04.04,4.89-4.48.95,1.05-6.51,5.96-.69-.76-1.81-12.67-.04-.04-5.4,4.93-.95-1.05,7.04-6.44.67.73h0ZM144.27,170.43l4.23-2.83-2.63-3.91-4.71,3.15-.79-1.17,6.11-4.1,7.29,10.86-5.86,3.94-.79-1.17,4.46-2.99-2.3-3.43-4.23,2.83-.78-1.16h0ZM137.11,181.84l-2.73-7.24c-1.04-2.74-2.69-3.44-4.32-2.83-1.81.68-2.52,2.32-1.5,5.03l2.73,7.24-1.59.6-2.69-7.14c-1.42-3.75-.03-6.05,2.63-7.04,2.51-.94,4.93-.22,6.36,3.57l2.72,7.2-1.59.6h0ZM124.54,185.98l-1.65.34-2.31-11.42-5.47,1.11-.28-1.39,7.13-1.44,2.6,12.81h0ZM110.74,179.09l1.17-4.17,1.75-.08-3.85,13.27-2.03.09-5.04-12.86,1.81-.08,1.58,4.05,4.63-.21h0ZM106.52,180.6l1.45,3.7c.33.84.56,1.6.78,2.35h.04c.16-.78.34-1.59.56-2.4l1.11-3.84s-3.94.18-3.94.18ZM93.04,185.61c.4.28,1.22.76,2.4.89,1.77.19,2.56-.78,2.67-1.68.13-1.21-.59-1.9-2.3-2.79-2.1-1.1-3.1-2.28-2.89-4.18.19-1.74,1.46-3.14,3.78-3.27l.62-.81c-.72-.22-1.27-.81-1.19-1.59.13-1.12,1.16-1.45,2.14-1.34.5.06,1.03.25,1.35.48l-.39.84c-.27-.19-.62-.32-1.03-.37-.45-.05-.83.08-.88.49-.06.52.51.8,1.41,1l-.93,1.34s.06,0,.08,0c1.26.14,2.58.66,3.22,1.2l-.58,1.36c-.7-.55-1.75-1.05-2.91-1.18-1.71-.19-2.82.6-2.97,1.91-.13,1.21.48,1.98,2.16,2.86,2.04.99,3.22,2.24,3.02,4.07-.23,2.02-2.08,3.34-4.6,3.06-1.33-.15-2.26-.57-2.8-.95l.62-1.32h.02ZM87.61,177.25l2.4-3.6,1.69.46-7.77,11.42-1.97-.54-.81-13.79,1.74.48.25,4.34,4.47,1.24h0ZM83.13,177.37l.23,3.97c.05.9.03,1.7.02,2.48h.03c.4-.68.81-1.39,1.27-2.09l2.24-3.31-3.8-1.05h0ZM73.75,182.18l-1.54-.7,4.82-10.62-5.09-2.31.58-1.29,6.63,3-5.41,11.91h0ZM62.46,176.44l6.63-11.27,1.45.85-6.63,11.27-1.45-.85ZM54.01,161.19c-1.07,1.48-2.36,3.26-3.41,4.5l.04.03c1.32-.91,2.76-1.83,4.41-2.82l5.79-3.48,1,.81-2.28,6.17c-.67,1.82-1.33,3.47-2.02,4.9l.03.03c1.05-1.24,2.51-2.88,3.84-4.34l3.8-4.13,1.25,1.01-8.94,9.58-1.67-1.36,2.25-6.32c.59-1.59,1.15-2.99,1.75-4.25l-.04-.03c-1.09.82-2.35,1.64-3.85,2.56l-5.79,3.45-1.67-1.36,7.6-10.67,1.28,1.04-3.36,4.67h-.02ZM38.17,153.48h3.05l.03-.03-2.08-2.09,1.05-.8,1.49,2.54.03-.03.73-2.89,1.3.55-1.46,2.57.03.03,2.94-.66.12,1.3-3-.03-.03.03,2.03,2.06-1.05.8-1.43-2.49-.03.03-.78,2.88-1.26-.53,1.42-2.59-.03-.03-2.88.7-.18-1.32h0ZM42.11,140.01c.08-.89-.04-2.05-.56-3.1-.75-1.55-2.02-2.07-3.2-1.48-1.1.53-1.43,1.47-1.27,3.35.25,2.25-.17,3.92-1.83,4.72-1.83.89-3.93.03-5.04-2.25-.58-1.21-.73-2.21-.68-2.88l1.44-.19c-.03.49,0,1.44.52,2.51.78,1.6,2.03,1.75,2.83,1.36,1.1-.53,1.29-1.51,1.13-3.44-.19-2.36.27-3.84,2-4.68,1.81-.88,4.04-.3,5.38,2.48.55,1.13.82,2.53.71,3.37l-1.46.24h.02ZM25.71,134.93c-.47.17-1.05-.08-1.24-.59-.18-.49.13-1.04.6-1.21s1.07.05,1.25.55c.19.53-.13,1.08-.61,1.25ZM26.9,132.61l12.32-4.39.57,1.59-12.32,4.39-.57-1.59h0ZM37.34,126.12l-11.96-4.7-.06.02,1.48,6.47-1.38.32-1.97-8.6,1-.23,11.92,4.67.06-.02-1.64-7.13,1.38-.32,2.13,9.3-.96.22h0ZM29.3,107.93l.39,5.07,4.7-.35-.43-5.65,1.41-.11.56,7.33-13.04.99-.53-7.04,1.41-.11.4,5.36,4.12-.31-.39-5.07,1.39-.1h.02ZM22.88,96.09l7.65,1.17c2.89.45,4.32-.66,4.58-2.38.3-1.91-.78-3.34-3.64-3.78l-7.65-1.17.26-1.69,7.54,1.16c3.97.61,5.28,2.94,4.85,5.74-.4,2.65-2.23,4.41-6.23,3.8l-7.62-1.16s.26-1.69.26-1.69ZM25.44,83.12l.52-1.6,11.09,3.59,1.72-5.31,1.35.44-2.24,6.93-12.44-4.02h0ZM38.21,74.47l3.05,3.07-.79,1.56-9.66-9.87.92-1.82,13.68,1.92-.82,1.61-4.3-.62-2.09,4.14h0ZM38.97,70.04l-3.94-.56c-.89-.13-1.67-.3-2.44-.47l-.02.03c.61.52,1.21,1.07,1.81,1.66l2.8,2.85s1.78-3.52,1.78-3.52ZM41.26,55.85c-.44.21-1.27.69-1.96,1.64-1.05,1.44-.58,2.62.14,3.15.99.72,1.94.42,3.57-.62,1.99-1.29,3.51-1.58,5.07-.45,1.42,1.02,2.01,2.82.98,4.9l.4.94c.54-.51,1.33-.72,1.97-.24.91.66.69,1.72.11,2.52-.3.4-.73.77-1.09.94l-.54-.75c.3-.14.59-.39.83-.72.26-.36.34-.76,0-1-.42-.3-.95.05-1.56.73l-.71-1.47s-.03.05-.04.06c-.74,1.02-1.85,1.92-2.63,2.21l-.89-1.17c.82-.34,1.78-1.01,2.46-1.95,1.01-1.4.87-2.75-.2-3.53-.99-.72-1.97-.56-3.55.47-1.86,1.28-3.53,1.7-5.03.62-1.65-1.2-1.89-3.45-.4-5.51.78-1.09,1.6-1.69,2.21-1.97l.84,1.19h.02ZM51.22,55.25l1.95,3.86-1.23,1.24-6.12-12.38,1.44-1.44,12.41,6.08-1.27,1.27-3.9-1.91-3.27,3.28h0ZM53.32,51.28l-3.57-1.75c-.81-.4-1.49-.81-2.17-1.21l-.03.03c.41.68.83,1.4,1.21,2.14l1.77,3.58,2.78-2.78ZM53.72,40.76l1.36-1,6.89,9.41,4.5-3.31.84,1.14-5.87,4.3-7.73-10.55h0ZM64.24,33.73l6.58,11.3-1.46.85-6.58-11.3,1.46-.85ZM81.7,33.84c-.76-1.66-1.68-3.65-2.26-5.18l-.05.03c.15,1.59.24,3.31.3,5.23l.19,6.75-1.19.47-4.26-5.01c-1.26-1.48-2.36-2.86-3.28-4.17l-.03.02c.57,1.53,1.28,3.6,1.9,5.47l1.74,5.34-1.5.59-3.96-12.5,2-.79,4.4,5.06c1.1,1.3,2.04,2.47,2.85,3.61l.05-.03c-.18-1.35-.28-2.85-.34-4.61l-.16-6.74,2-.79,5.58,11.86-1.54.61-2.42-5.22h0ZM96.24,23.87l-1.5,2.65v.04l2.86-.78.18,1.31-2.95.05v.04l2.16,2.06-1.12.86-1.52-2.54h-.04l-.89,2.88-1.19-.55,1.51-2.59v-.04l-2.8.75-.18-1.31,2.88-.02v-.04l-2.13-2.1,1.08-.84,1.55,2.51h.04l.81-2.86,1.24.5h.02Z"/>
  </g>
</svg>