<?xml version="1.0" encoding="UTF-8"?>
<svg xmlns="http://www.w3.org/2000/svg" version="1.1" viewBox="0 0 110 110">
  <!-- Generator: Adobe Illustrator 29.5.1, SVG Export Plug-In . SVG Version: 2.1.0 Build 141)  -->
  <defs>
    <style>
      .st0 {
        fill: #fff;
      }
    </style>
  </defs>
  <g id="coming-soon-object" shape-rendering="geometricPrecision" text-rendering="geometricPrecision">
    <path class="st0" d="M55,2c29.2,0,53,23.8,53,53s-23.8,53-53,53S2,84.2,2,55,25.8,2,55,2M55,0C24.6,0,0,24.6,0,55s24.6,55,55,55,55-24.6,55-55S85.4,0,55,0h0Z"/>
    <g id="rotation-group">
      <path class="st0" d="M58.61,19.19l-.66-.1.97-6.23.66.1-.97,6.23ZM63.02,16.93l-4.03-.62.09-.58,4.03.62-.09.58ZM63.47,13.57l.65.1-.97,6.23-.65-.1.97-6.23ZM67.8,21.47c-.44-.17-.83-.4-1.15-.69-.32-.29-.57-.63-.74-1.01s-.27-.78-.28-1.2c-.02-.42.06-.85.22-1.28.17-.43.39-.8.69-1.1.29-.3.63-.54,1.01-.7.38-.17.79-.25,1.22-.26.43,0,.87.08,1.32.25.44.17.82.4,1.14.69.32.29.57.63.74,1s.27.77.28,1.2c.02.42-.06.85-.22,1.28s-.39.8-.69,1.11c-.29.31-.63.54-1.01.7s-.79.25-1.22.25c-.43,0-.87-.08-1.31-.25ZM68.02,20.92c.35.13.7.2,1.05.19.35,0,.67-.08.98-.21s.58-.33.81-.58c.24-.25.42-.55.56-.9s.2-.7.19-1.04c-.01-.34-.08-.67-.22-.97-.14-.31-.33-.58-.59-.81-.25-.23-.56-.42-.91-.55-.35-.13-.7-.2-1.05-.19s-.68.08-.99.21-.58.33-.82.57-.42.55-.56.9c-.13.35-.19.69-.18,1.04s.08.67.22.98.34.58.59.81c.26.24.56.42.92.56ZM73.76,24.41c-.4-.25-.74-.55-1.03-.9s-.46-.7-.54-1.02l.49-.3c.08.3.24.61.48.93.24.32.54.59.89.81.34.21.64.33.9.38.26.05.49.03.68-.05s.33-.21.44-.38c.13-.21.17-.42.13-.62-.04-.2-.14-.4-.29-.59-.15-.19-.32-.39-.52-.59-.2-.2-.4-.41-.59-.61-.2-.21-.36-.43-.49-.66-.13-.23-.2-.47-.21-.72s.07-.52.25-.8c.16-.27.38-.47.66-.6.28-.14.6-.18.98-.14.37.04.79.21,1.24.48.3.19.57.41.82.68.24.27.43.54.55.82l-.47.33c-.14-.29-.31-.56-.52-.79-.21-.23-.44-.42-.68-.57-.32-.2-.62-.32-.88-.36s-.49-.02-.68.06c-.19.08-.34.22-.45.4-.13.21-.17.42-.13.62.04.2.14.4.29.59.15.19.33.39.53.59s.4.41.59.62c.19.21.35.43.49.65.13.23.21.46.22.71s-.07.51-.24.79c-.16.26-.38.46-.66.59-.28.13-.61.18-.99.13s-.8-.21-1.26-.49ZM79.12,28.43c-.36-.32-.64-.67-.83-1.06-.2-.39-.31-.79-.34-1.2-.03-.41.02-.82.16-1.22s.36-.77.67-1.12.65-.61,1.04-.79.78-.28,1.2-.29c.42-.02.83.05,1.24.2.41.15.79.39,1.15.71.36.32.64.67.83,1.05.2.38.3.77.31,1.19l-.59.04c-.02-.37-.11-.71-.27-1s-.38-.57-.65-.81c-.29-.26-.6-.45-.93-.57-.33-.12-.67-.17-1-.16-.34.02-.66.1-.97.24s-.59.36-.84.64c-.25.28-.43.58-.54.91-.11.33-.16.66-.13,1,.02.34.11.67.27.98s.38.6.67.85c.27.24.56.43.87.56s.65.19,1.03.18l-.05.63c-.4,0-.79-.09-1.18-.25-.39-.17-.75-.4-1.07-.69ZM80.95,28.89l1.55-1.73.48.43-1.6,1.79-.42-.49ZM83.09,31.63l2.32,3-.46.35-2.73-3.52,4.98-3.86,2.64,3.42-.46.35-2.24-2.89-4.07,3.15ZM85.34,29.79l2.04,2.63-.45.35-2.04-2.63.45-.35ZM85.85,36.49l5.54-3,.32.59-5.03,2.72,1.68,3.1-.51.27-2-3.69ZM88.36,41.33l5.99-1.95.79,2.44c.21.64.26,1.24.17,1.81-.1.56-.33,1.05-.69,1.47-.36.41-.84.72-1.43.91s-1.15.23-1.69.1c-.54-.12-1.01-.38-1.42-.78-.41-.4-.72-.92-.93-1.56l-.79-2.44ZM89.11,41.79l.58,1.77c.17.53.43.96.76,1.28.34.32.72.53,1.16.63.44.1.9.07,1.38-.09.48-.16.88-.4,1.17-.74.29-.34.48-.73.56-1.19.08-.46.04-.95-.14-1.48l-.58-1.77-4.9,1.59ZM90.38,48.67l6.21-1.04.11.66-6.21,1.04-.11-.66ZM90.87,51.56l6.3-.14v.55s-5.36,4.47-5.36,4.47v-.29s5.46-.12,5.46-.12v.66s-6.28.14-6.28.14v-.55s5.36-4.46,5.36-4.46v.29s-5.46.12-5.46.12v-.67ZM90.71,59.08l6.25.76-.08.66-6.25-.76.08-.66ZM90.46,61.37l.45.11,4.28,5.59h-.26s1.07-4.24,1.07-4.24l.56.14-1.22,4.84-.44-.11-4.28-5.58.26-.02-1.11,4.42-.56-.14,1.26-5.01ZM91.65,74.79l-.08-1.42.13.06-1.18.8-.25-.35,1.18-.78v.11s-1.24-.61-1.24-.61l.18-.37,1.23.62-.08.06-.1-1.4.43-.03.08,1.43-.13-.06,1.18-.81.24.36-1.18.77v-.1s1.24.6,1.24.6l-.18.37-1.23-.61.08-.07.09,1.41-.43.02ZM86.37,83.35l-.42.51-4.87-4,.42-.51,4.87,4ZM83.71,81.24l2.59-3.15.45.37-2.59,3.15-.45-.37ZM84.01,76.3l.42-.51,4.87,4-.42.51-4.87-4ZM77.38,83.05c.37-.3.76-.51,1.18-.64.42-.13.83-.17,1.24-.13.41.04.81.16,1.18.36.37.2.7.48.99.84.29.36.49.74.6,1.15.11.41.14.81.09,1.23-.05.41-.18.81-.4,1.18-.21.38-.51.71-.88,1.01-.37.3-.76.51-1.18.63-.41.13-.83.17-1.24.13-.41-.04-.8-.16-1.18-.36-.37-.2-.7-.48-.99-.84s-.49-.75-.6-1.15c-.11-.41-.15-.82-.09-1.23.05-.41.19-.8.4-1.18s.51-.71.88-1.01ZM77.75,83.51c-.29.24-.53.5-.7.81-.17.3-.27.62-.31.95s0,.66.08.99c.09.33.26.64.49.94.24.3.5.53.8.69.3.16.62.26.95.3.33.04.67,0,1-.09.33-.1.64-.27.94-.5.29-.24.53-.51.7-.81.17-.3.28-.62.32-.96s.01-.67-.08-1-.26-.64-.49-.94c-.23-.29-.5-.52-.8-.68s-.62-.27-.96-.3c-.33-.04-.67,0-1,.1-.33.1-.65.27-.94.51ZM71.82,86.7c.41-.22.85-.36,1.3-.43.45-.07.84-.05,1.16.05v.58c-.29-.09-.64-.11-1.04-.06-.4.05-.78.17-1.15.36-.35.19-.61.38-.78.58-.17.2-.27.41-.3.61-.03.2.01.39.11.58.12.22.27.36.47.42.19.07.41.08.66.05s.5-.08.78-.15.55-.14.83-.2c.28-.06.55-.09.81-.09s.51.06.73.18c.22.12.41.32.57.62.15.28.21.57.18.88-.02.31-.15.61-.38.91-.23.3-.58.58-1.05.83-.31.17-.65.29-1,.36-.35.08-.68.1-.99.06l-.05-.57c.32.03.64.01.95-.05.31-.07.58-.17.83-.3.33-.18.58-.37.75-.57.17-.21.26-.41.29-.62s-.02-.4-.12-.59c-.12-.22-.27-.36-.47-.43-.19-.07-.41-.08-.66-.05s-.5.09-.78.16-.55.14-.83.2c-.28.06-.55.09-.81.09s-.5-.06-.72-.17c-.22-.11-.41-.32-.56-.61-.14-.27-.2-.56-.18-.87.03-.31.15-.62.38-.92.23-.3.58-.58,1.06-.83ZM65.64,89.28c.46-.15.9-.21,1.34-.18.43.03.84.13,1.21.32.37.18.69.44.97.76.28.32.48.7.62,1.14.14.44.19.87.15,1.29-.04.42-.16.82-.36,1.18-.2.37-.47.69-.8.96-.34.27-.73.49-1.19.63-.46.15-.9.21-1.32.19s-.82-.13-1.18-.34l.27-.53c.33.17.67.26,1,.27.34.01.68-.04,1.03-.15.37-.12.69-.29.96-.51.27-.22.49-.48.65-.78.16-.3.26-.62.29-.96.03-.34,0-.69-.12-1.05-.11-.35-.28-.66-.51-.92-.23-.26-.49-.47-.79-.62-.3-.15-.63-.24-.98-.26s-.71.02-1.08.14c-.34.11-.65.26-.92.47-.27.2-.5.46-.68.79l-.51-.36c.21-.34.48-.64.82-.89s.72-.44,1.14-.58ZM64.31,90.63l.71,2.21-.61.2-.73-2.29.63-.12ZM60.87,91.07l-3.76.47-.07-.57,4.42-.55.78,6.25-4.29.53-.07-.57,3.63-.45-.64-5.11ZM61.3,93.94l-3.3.41-.07-.56,3.3-.41.07.56ZM55.29,90.97l-.23,6.3-.67-.02.21-5.72-3.53-.13.02-.58,4.19.15ZM49.84,90.67l-1.36,6.15-2.5-.55c-.66-.15-1.2-.4-1.64-.77-.44-.37-.74-.82-.92-1.34-.17-.52-.19-1.09-.06-1.69.13-.6.39-1.11.77-1.51.38-.4.84-.68,1.4-.83.55-.15,1.16-.15,1.81,0l2.5.55ZM49.06,91.09l-1.82-.4c-.54-.12-1.04-.12-1.49,0-.45.12-.83.35-1.13.68-.31.33-.51.74-.62,1.23-.11.5-.1.96.04,1.38s.39.79.74,1.09.8.51,1.35.63l1.82.4,1.11-5.03ZM42.49,88.7l-2.25,5.89-.62-.24,2.25-5.88.62.24ZM39.76,87.66l-3.08,5.5-.48-.27-1.12-6.9.25.14-2.67,4.77-.57-.32,3.08-5.5.48.27,1.11,6.89-.25-.14,2.67-4.77.58.33ZM33.38,83.71l-3.84,4.99-.53-.41,3.84-4.99.53.41ZM31.5,82.3l-.32.33-6.99.84.13-.23,3.11,3.09-.41.41-3.55-3.52.32-.33,6.98-.85-.12.24-3.23-3.21.41-.41,3.67,3.64ZM19.34,76.52l1.27.65-.12.08-.09-1.42.43-.03.08,1.41-.09-.06,1.15-.75.23.35-1.16.75v-.1s1.25.62,1.25.62l-.2.39-1.27-.66.12-.08.1,1.43-.43.03-.07-1.41.09.05-1.15.76-.23-.35,1.15-.76.02.11-1.27-.63.2-.38ZM14.64,67.64l-.23-.62,5.92-2.16.23.62-5.92,2.16ZM21.91,69.18l.23.62-5.92,2.16-.23-.62,5.92-2.16ZM17.81,66.41l1.4,3.83-.55.2-1.4-3.83.55-.2ZM19.47,60.04c.07.47.05.92-.05,1.34-.1.42-.27.8-.52,1.14-.25.33-.55.61-.91.83-.36.22-.77.36-1.23.42s-.89.04-1.3-.07-.77-.29-1.1-.54c-.33-.25-.6-.57-.81-.94-.21-.38-.35-.8-.42-1.28-.07-.47-.05-.91.05-1.33.1-.42.27-.8.52-1.13.24-.33.55-.61.91-.83s.77-.36,1.23-.42.89-.04,1.3.07.78.29,1.1.54c.33.25.6.57.81.95s.35.8.42,1.27ZM18.88,60.12c-.05-.37-.17-.71-.34-1.01-.17-.3-.39-.55-.66-.75-.27-.2-.57-.35-.9-.43-.33-.09-.68-.1-1.06-.05-.37.05-.71.17-1,.34-.29.17-.54.4-.74.66-.2.27-.34.57-.43.91s-.1.69-.05,1.07.17.71.34,1.02.39.56.66.76c.27.2.57.35.9.44.33.09.68.1,1.06.05.37-.05.7-.17,1-.34.3-.17.55-.4.75-.67.2-.27.34-.58.43-.92.08-.34.1-.7.04-1.07ZM19.15,53.39c-.02.47-.12.91-.29,1.33-.17.42-.38.74-.63.97l-.5-.28c.23-.21.42-.5.58-.87s.25-.76.27-1.17c.02-.4-.02-.72-.11-.97-.09-.25-.21-.44-.38-.57-.16-.12-.35-.19-.55-.2-.25-.01-.45.05-.6.19-.16.13-.28.31-.38.54-.1.22-.18.47-.26.75-.08.27-.16.55-.25.82-.09.27-.2.52-.33.75s-.31.4-.52.54-.49.19-.82.18c-.31-.01-.59-.11-.85-.29-.25-.18-.45-.44-.6-.79-.14-.35-.2-.79-.18-1.32.02-.35.08-.7.19-1.05s.26-.64.45-.88l.52.25c-.19.26-.34.54-.43.84-.1.3-.15.59-.16.87-.02.38.02.69.11.94.09.25.22.44.39.56.17.12.36.19.57.2.25.01.45-.05.6-.19s.28-.31.38-.54.18-.48.26-.75.16-.54.25-.81c.09-.27.2-.52.33-.74.13-.23.3-.4.51-.54s.48-.19.81-.18c.31.01.59.11.84.29.25.18.45.44.6.8.14.35.2.8.18,1.34ZM20.07,46.76c-.11.47-.28.88-.53,1.24-.24.36-.54.65-.89.88-.35.23-.73.38-1.15.45-.42.08-.85.06-1.3-.04-.45-.1-.85-.28-1.19-.52-.34-.25-.62-.55-.84-.9-.21-.36-.35-.75-.42-1.18s-.05-.88.06-1.35c.11-.47.28-.88.51-1.24.23-.36.53-.64.89-.85l.32.5c-.32.2-.56.44-.75.73s-.31.61-.39.96c-.09.38-.1.74-.05,1.09.05.35.17.67.35.96.18.29.41.53.68.74.28.2.6.34.97.43.36.08.71.09,1.05.03s.65-.19.94-.37c.28-.19.53-.42.72-.71.2-.29.34-.62.42-1,.08-.35.1-.69.07-1.03s-.15-.67-.34-.99l.57-.26c.19.35.31.74.35,1.16.04.42.02.85-.08,1.27ZM19.58,44.93l-2.26-.51.14-.62,2.34.53-.22.61ZM20.94,41.74l1.5-3.48.53.23-1.77,4.09-5.78-2.5,1.71-3.97.53.23-1.45,3.35,4.73,2.04ZM18.25,40.66l1.32-3.06.52.22-1.32,3.06-.52-.23ZM23.85,37l-5.3-3.4.36-.56,4.82,3.09,1.9-2.97.48.31-2.26,3.53ZM26.89,32.45l-4.6-4.3,1.75-1.88c.46-.49.96-.83,1.5-1.02.54-.19,1.08-.22,1.62-.11.54.12,1.03.39,1.49.81s.75.9.91,1.43c.15.53.16,1.07,0,1.62-.15.55-.46,1.08-.91,1.57l-1.75,1.87ZM26.93,31.57l1.27-1.36c.38-.41.63-.84.75-1.29.12-.45.12-.89-.01-1.32-.13-.43-.38-.82-.74-1.16-.37-.35-.78-.57-1.21-.67-.44-.1-.87-.07-1.31.08-.44.15-.85.43-1.23.84l-1.27,1.36,3.76,3.51ZM32.32,27.12l-3.93-4.92.52-.42,3.93,4.92-.52.42ZM34.61,25.29l-3.18-5.44.47-.28,6.52,2.53-.25.15-2.76-4.72.57-.33,3.18,5.44-.47.28-6.51-2.53.25-.15,2.76,4.72-.57.34ZM41.26,21.78l-2.36-5.84.62-.25,2.36,5.84-.62.25ZM43.42,20.88l-.12-.44,2.83-6.45.13.23-4.24,1.11-.15-.56,4.83-1.27.12.44-2.82,6.44-.14-.22,4.41-1.16.15.56-5,1.31ZM54.57,13.36l-1.21.76v-.14s1.27.64,1.27.64l-.19.39-1.26-.65.1-.05.06,1.38-.41.02-.06-1.38.09.04-1.18.77-.23-.37,1.22-.76v.14s-1.28-.64-1.28-.64l.2-.39,1.25.65-.09.05-.07-1.38.41-.02.06,1.38-.1-.04,1.19-.77.22.37Z"/>
    </g>
    <path class="st0" d="M47.52,46.57c0-3.77-2.77-6.56-6.56-6.56s-6.62,2.94-6.62,6.67,2.72,6.6,6.73,6.6c2.88,0,4.84-1.37,5.95-3.44l-2.42-1.39c-.61,1.37-1.87,2.24-3.53,2.24-2.09,0-3.51-1.2-3.92-3.01h10.37v-1.11ZM37.3,45.22c.52-1.57,1.9-2.61,3.66-2.61s3.14.89,3.57,2.61h-7.23ZM56.89,40.27l-3.22,8.98-3.29-8.98h-3.07l4.86,12.74h2.96l4.79-12.74h-3.03ZM66.21,40.01c-3.68,0-6.6,2.92-6.6,6.64s2.92,6.62,6.6,6.62,6.6-2.96,6.6-6.62-2.94-6.64-6.6-6.64ZM66.21,50.51c-2.11,0-3.7-1.74-3.7-3.86s1.59-3.88,3.7-3.88,3.7,1.72,3.7,3.88-1.61,3.86-3.7,3.86ZM41.07,63.17l4.95-6.19h-1.55l-4.14,5.34-4.21-5.34h-1.53l4.92,6.19-5.19,6.56h1.57l4.38-5.71,4.42,5.71h1.55l-5.19-6.56ZM56.44,56.98v1.53c-.94-1.11-2.42-1.79-4.1-1.79-3.22,0-6.32,2.42-6.32,6.64s3.2,6.62,6.27,6.62c1.68,0,3.2-.72,4.14-1.92v1.65h2.94v-12.74h-2.94ZM52.78,67.29c-2.18,0-3.86-1.74-3.86-3.96s1.68-3.92,3.86-3.92,3.81,1.74,3.81,3.92-1.61,3.96-3.81,3.96ZM67.36,56.98c-1.59,0-2.68.63-3.27,1.9v-1.9h-2.92v12.74h2.94v-6.8c0-2.2.89-3.11,2.61-3.11.85,0,1.33.22,1.76.5l1.11-2.79c-.59-.33-1.31-.54-2.24-.54ZM75.66,59.62v-2.64h-2.59v-3.97l-2.96,2.03v9.37c0,4.05,1.2,5.31,5.14,5.31h.41v-2.77c-2.27,0-2.59-.35-2.59-2.57v-4.77h2.59Z"/>
  </g>
</svg>