<?xml version="1.0" encoding="UTF-8"?>
<svg id="Layer_1" xmlns="http://www.w3.org/2000/svg" version="1.1" viewBox="0 0 120 90">
  <!-- Generator: Adobe Illustrator 29.5.1, SVG Export Plug-In . SVG Version: 2.1.0 Build 141)  -->
  <defs>
    <style>
      .st0 {
        fill: #fff;
      }
    </style>
  </defs>
  <g>
    <path class="st0" d="M38.89,21.2c0-10.64-7.81-18.52-18.52-18.52S1.66,10.98,1.66,21.49s7.7,18.65,19.01,18.65c8.12,0,13.66-3.87,16.81-9.72l-6.82-3.94c-1.73,3.87-5.29,6.32-9.97,6.32-5.89,0-9.9-3.38-11.07-8.48h29.27s0-3.13,0-3.13ZM10.03,17.37c1.48-4.43,5.36-7.38,10.33-7.38s8.87,2.52,10.08,7.38c0,0-20.41,0-20.41,0Z"/>
    <path class="st0" d="M65.33,3.42l-9.11,25.34L46.95,3.42h-8.66l13.73,35.98h8.37L73.93,3.42h-8.59Z"/>
    <path class="st0" d="M91.66,2.68c-10.39,0-18.63,8.24-18.63,18.77s8.23,18.7,18.63,18.7,18.63-8.37,18.63-18.7S101.99,2.68,91.66,2.68ZM91.66,32.33c-5.96,0-10.46-4.93-10.46-10.89s4.5-10.96,10.46-10.96,10.46,4.86,10.46,10.96-4.55,10.89-10.46,10.89Z"/>
  </g>
  <g>
    <path class="st0" d="M20.67,68.06l13.97-17.48h-4.37l-11.7,15.08-11.88-15.08H2.4l13.9,17.48L1.66,86.58h4.43l12.37-16.11,12.49,16.11h4.36s-14.65-18.52-14.65-18.52Z"/>
    <g>
      <path class="st0" d="M64.07,50.6v4.3c-2.66-3.15-6.82-5.04-11.56-5.04-9.11,0-17.84,6.82-17.84,18.77s9.05,18.7,17.71,18.7c4.75,0,9.05-2.03,11.7-5.42v4.68h8.3v-35.98s-8.3,0-8.3,0ZM53.74,79.69c-6.14,0-10.89-4.93-10.89-11.2s4.75-11.07,10.89-11.07,10.76,4.93,10.76,11.07-4.55,11.2-10.76,11.2Z"/>
      <path class="st0" d="M94.9,50.6c-4.48,0-7.56,1.78-9.22,5.35v-5.36h-8.23v35.98h8.3v-19.19c0-6.21,2.52-8.8,7.38-8.8,2.41,0,3.76.61,4.97,1.42l3.13-7.88c-1.67-.92-3.69-1.53-6.34-1.53h.02Z"/>
      <path class="st0" d="M118.34,58.05v-7.45h-7.31v-11.2l-8.37,5.71v26.46c0,11.43,3.38,15.01,14.51,15.01h1.17v-7.81c-6.39,0-7.31-.99-7.31-7.27v-13.48h7.31v.02Z"/>
    </g>
  </g>
</svg>